<?xml version="1.0" encoding="UTF-8" standalone="no"?>
<!DOCTYPE svg PUBLIC "-//W3C//DTD SVG 1.1//EN"
 "http://www.w3.org/Graphics/SVG/1.1/DTD/svg11.dtd">
<!-- Generated by graphviz version 2.28.0 (20111211.2114)
 -->
<!-- Title: G Pages: 1 -->
<svg width="454pt" height="672pt"
 viewBox="0.00 0.00 454.00 672.00" xmlns="http://www.w3.org/2000/svg" xmlns:xlink="http://www.w3.org/1999/xlink">
<g id="graph1" class="graph" transform="scale(1 1) rotate(0) translate(4 668)">
<title>G</title>
<polygon fill="white" stroke="white" points="-4,5 -4,-668 451,-668 451,5 -4,5"/>
<g id="graph2" class="cluster"><title>cluster_Sagres</title>
<polyline fill="none" stroke="gray" points="20,-44 426,-44 "/>
<path fill="none" stroke="gray" d="M426,-44C432,-44 438,-50 438,-56"/>
<polyline fill="none" stroke="gray" points="438,-56 438,-644 "/>
<path fill="none" stroke="gray" d="M438,-644C438,-650 432,-656 426,-656"/>
<polyline fill="none" stroke="gray" points="426,-656 20,-656 "/>
<path fill="none" stroke="gray" d="M20,-656C14,-656 8,-650 8,-644"/>
<polyline fill="none" stroke="gray" points="8,-644 8,-56 "/>
<path fill="none" stroke="gray" d="M8,-56C8,-50 14,-44 20,-44"/>
<text text-anchor="middle" x="223" y="-643.2" font-family="Times,serif" font-size="11.00" fill="gray">Sagres</text>
</g>
<g id="graph3" class="cluster"><title>cluster_Sagres\Component</title>
<polyline fill="none" stroke="gray" points="28,-52 418,-52 "/>
<path fill="none" stroke="gray" d="M418,-52C424,-52 430,-58 430,-64"/>
<polyline fill="none" stroke="gray" points="430,-64 430,-616 "/>
<path fill="none" stroke="gray" d="M430,-616C430,-622 424,-628 418,-628"/>
<polyline fill="none" stroke="gray" points="418,-628 28,-628 "/>
<path fill="none" stroke="gray" d="M28,-628C22,-628 16,-622 16,-616"/>
<polyline fill="none" stroke="gray" points="16,-616 16,-64 "/>
<path fill="none" stroke="gray" d="M16,-64C16,-58 22,-52 28,-52"/>
<text text-anchor="middle" x="223" y="-615.2" font-family="Times,serif" font-size="11.00" fill="gray">Component</text>
</g>
<g id="graph4" class="cluster"><title>cluster_Sagres\Component\FileSystem</title>
<polyline fill="none" stroke="gray" points="36,-60 410,-60 "/>
<path fill="none" stroke="gray" d="M410,-60C416,-60 422,-66 422,-72"/>
<polyline fill="none" stroke="gray" points="422,-72 422,-588 "/>
<path fill="none" stroke="gray" d="M422,-588C422,-594 416,-600 410,-600"/>
<polyline fill="none" stroke="gray" points="410,-600 36,-600 "/>
<path fill="none" stroke="gray" d="M36,-600C30,-600 24,-594 24,-588"/>
<polyline fill="none" stroke="gray" points="24,-588 24,-72 "/>
<path fill="none" stroke="gray" d="M24,-72C24,-66 30,-60 36,-60"/>
<text text-anchor="middle" x="223" y="-587.2" font-family="Times,serif" font-size="11.00" fill="gray">FileSystem</text>
</g>
<g id="graph5" class="cluster"><title>cluster_Sagres\Component\FileSystem\Exception</title>
<polyline fill="none" stroke="gray" points="224,-222 402,-222 "/>
<path fill="none" stroke="gray" d="M402,-222C408,-222 414,-228 414,-234"/>
<polyline fill="none" stroke="gray" points="414,-234 414,-282 "/>
<path fill="none" stroke="gray" d="M414,-282C414,-288 408,-294 402,-294"/>
<polyline fill="none" stroke="gray" points="402,-294 224,-294 "/>
<path fill="none" stroke="gray" d="M224,-294C218,-294 212,-288 212,-282"/>
<polyline fill="none" stroke="gray" points="212,-282 212,-234 "/>
<path fill="none" stroke="gray" d="M212,-234C212,-228 218,-222 224,-222"/>
<text text-anchor="middle" x="313" y="-281.2" font-family="Times,serif" font-size="11.00" fill="gray">Exception</text>
</g>
<g id="graph6" class="cluster"><title>cluster_Sagres\Component\FileSystem\Locator</title>
<polyline fill="none" stroke="gray" points="44,-302 369,-302 "/>
<path fill="none" stroke="gray" d="M369,-302C375,-302 381,-308 381,-314"/>
<polyline fill="none" stroke="gray" points="381,-314 381,-560 "/>
<path fill="none" stroke="gray" d="M381,-560C381,-566 375,-572 369,-572"/>
<polyline fill="none" stroke="gray" points="369,-572 44,-572 "/>
<path fill="none" stroke="gray" d="M44,-572C38,-572 32,-566 32,-560"/>
<polyline fill="none" stroke="gray" points="32,-560 32,-314 "/>
<path fill="none" stroke="gray" d="M32,-314C32,-308 38,-302 44,-302"/>
<text text-anchor="middle" x="206.5" y="-559.2" font-family="Times,serif" font-size="11.00" fill="gray">Locator</text>
</g>
<g id="graph7" class="cluster"><title>cluster_Sagres\Component\FileSystem\Locator\Node</title>
<polyline fill="none" stroke="gray" points="52,-310 361,-310 "/>
<path fill="none" stroke="gray" d="M361,-310C367,-310 373,-316 373,-322"/>
<polyline fill="none" stroke="gray" points="373,-322 373,-532 "/>
<path fill="none" stroke="gray" d="M373,-532C373,-538 367,-544 361,-544"/>
<polyline fill="none" stroke="gray" points="361,-544 52,-544 "/>
<path fill="none" stroke="gray" d="M52,-544C46,-544 40,-538 40,-532"/>
<polyline fill="none" stroke="gray" points="40,-532 40,-322 "/>
<path fill="none" stroke="gray" d="M40,-322C40,-316 46,-310 52,-310"/>
<text text-anchor="middle" x="206.5" y="-531.2" font-family="Times,serif" font-size="11.00" fill="gray">Node</text>
</g>
<!-- \\Sagres\\Component\\FileSystem\\Exception\\ResourceNotFoundException -->
<g id="node5" class="node"><title>\\Sagres\\Component\\FileSystem\\Exception\\ResourceNotFoundException</title>
<a xlink:href="db_Component_FileSystem_Exception_ResourceNotFoundException.html" xlink:title="ResourceNotFoundException" target="_parent">
<polygon fill="none" stroke="black" points="405.5,-266 220.5,-266 220.5,-230 405.5,-230 405.5,-266"/>
<text text-anchor="middle" x="313" y="-245.2" font-family="Courier,monospace" font-size="11.00">ResourceNotFoundException</text>
</a>
</g>
<!-- \\Exception -->
<g id="node34" class="node"><title>\\Exception</title>
<ellipse fill="none" stroke="black" cx="98" cy="-18" rx="48.9926" ry="18"/>
<text text-anchor="middle" x="98" y="-14.3" font-family="Times,serif" font-size="14.00" fill="gray">\Exception</text>
</g>
<!-- \\Sagres\\Component\\FileSystem\\Exception\\ResourceNotFoundException&#45;&gt;\\Exception -->
<g id="edge28" class="edge"><title>\\Sagres\\Component\\FileSystem\\Exception\\ResourceNotFoundException&#45;&gt;\\Exception</title>
<path fill="none" stroke="black" d="M220.044,-231.298C217.249,-229.685 214.557,-227.923 212,-226 150.907,-180.052 118.936,-91.0617 106.021,-45.8369"/>
<polygon fill="none" stroke="black" points="109.372,-44.8202 103.345,-36.1062 102.622,-46.6764 109.372,-44.8202"/>
</g>
<!-- \\Sagres\\Component\\FileSystem\\Locator\\Node\\FileNode -->
<g id="node8" class="node"><title>\\Sagres\\Component\\FileSystem\\Locator\\Node\\FileNode</title>
<a xlink:href="db_Component_FileSystem_Locator_Node_FileNode.html" xlink:title="FileNode" target="_parent">
<polygon fill="none" stroke="black" points="348.5,-516 277.5,-516 277.5,-480 348.5,-480 348.5,-516"/>
<text text-anchor="middle" x="313" y="-495.2" font-family="Courier,monospace" font-size="11.00">FileNode</text>
</a>
</g>
<!-- \\Sagres\\Component\\FileSystem\\Locator\\Node\\AbstractNode -->
<g id="node10" class="node"><title>\\Sagres\\Component\\FileSystem\\Locator\\Node\\AbstractNode</title>
<a xlink:href="db_Component_FileSystem_Locator_Node_AbstractNode.html" xlink:title="«abstract»&lt;br/&gt;AbstractNode" target="_parent">
<polygon fill="none" stroke="black" points="147.5,-462 48.5,-462 48.5,-426 147.5,-426 147.5,-462"/>
<text text-anchor="start" x="64" y="-447.7" font-family="Courier,monospace" font-size="11.00">«abstract»</text>
<text text-anchor="start" x="57" y="-436.7" font-family="Courier,monospace" font-size="11.00">AbstractNode</text>
</a>
</g>
<!-- \\Sagres\\Component\\FileSystem\\Locator\\Node\\FileNode&#45;&gt;\\Sagres\\Component\\FileSystem\\Locator\\Node\\AbstractNode -->
<g id="edge22" class="edge"><title>\\Sagres\\Component\\FileSystem\\Locator\\Node\\FileNode&#45;&gt;\\Sagres\\Component\\FileSystem\\Locator\\Node\\AbstractNode</title>
<path fill="none" stroke="black" d="M277.304,-489.204C244.948,-481.001 196.042,-468.602 157.628,-458.863"/>
<polygon fill="none" stroke="black" points="158.154,-455.386 147.601,-456.321 156.434,-462.171 158.154,-455.386"/>
</g>
<!-- \\Sagres\\Component\\FileSystem\\Locator\\Node\\FolderNode -->
<g id="node9" class="node"><title>\\Sagres\\Component\\FileSystem\\Locator\\Node\\FolderNode</title>
<a xlink:href="db_Component_FileSystem_Locator_Node_FolderNode.html" xlink:title="FolderNode" target="_parent">
<polygon fill="none" stroke="black" points="355,-462 271,-462 271,-426 355,-426 355,-462"/>
<text text-anchor="middle" x="313" y="-441.2" font-family="Courier,monospace" font-size="11.00">FolderNode</text>
</a>
</g>
<!-- \\Sagres\\Component\\FileSystem\\Locator\\Node\\FolderNode&#45;&gt;\\Sagres\\Component\\FileSystem\\Locator\\Node\\AbstractNode -->
<g id="edge24" class="edge"><title>\\Sagres\\Component\\FileSystem\\Locator\\Node\\FolderNode&#45;&gt;\\Sagres\\Component\\FileSystem\\Locator\\Node\\AbstractNode</title>
<path fill="none" stroke="black" d="M270.931,-444C238.913,-444 194.013,-444 158.126,-444"/>
<polygon fill="none" stroke="black" points="157.783,-440.5 147.783,-444 157.783,-447.5 157.783,-440.5"/>
</g>
<!-- \\Sagres\\Component\\FileSystem\\Locator\\Node\\NodeInterface -->
<g id="node11" class="node"><title>\\Sagres\\Component\\FileSystem\\Locator\\Node\\NodeInterface</title>
<a xlink:href="db_Component_FileSystem_Locator_Node_NodeInterface.html" xlink:title="NodeInterface" target="_parent">
<polygon fill="none" stroke="black" points="365,-408 261,-408 261,-372 365,-372 365,-408"/>
<text text-anchor="middle" x="313" y="-387.2" font-family="Courier,monospace" font-size="11.00">NodeInterface</text>
</a>
</g>
<!-- \\Sagres\\Component\\FileSystem\\Locator\\Node\\LinkNode -->
<g id="node12" class="node"><title>\\Sagres\\Component\\FileSystem\\Locator\\Node\\LinkNode</title>
<a xlink:href="db_Component_FileSystem_Locator_Node_LinkNode.html" xlink:title="LinkNode" target="_parent">
<polygon fill="none" stroke="black" points="348.5,-354 277.5,-354 277.5,-318 348.5,-318 348.5,-354"/>
<text text-anchor="middle" x="313" y="-333.2" font-family="Courier,monospace" font-size="11.00">LinkNode</text>
</a>
</g>
<!-- \\Sagres\\Component\\FileSystem\\Locator\\Node\\LinkNode&#45;&gt;\\Sagres\\Component\\FileSystem\\Locator\\Node\\AbstractNode -->
<g id="edge26" class="edge"><title>\\Sagres\\Component\\FileSystem\\Locator\\Node\\LinkNode&#45;&gt;\\Sagres\\Component\\FileSystem\\Locator\\Node\\AbstractNode</title>
<path fill="none" stroke="black" d="M277.115,-341.159C257.153,-345.129 232.153,-351.879 212,-363 180.774,-380.231 180.171,-397.723 150.024,-420.078"/>
<polygon fill="none" stroke="black" points="147.903,-417.289 141.686,-425.869 151.896,-423.039 147.903,-417.289"/>
</g>
<!-- \\Sagres\\Component\\FileSystem\\Copy -->
<g id="node14" class="node"><title>\\Sagres\\Component\\FileSystem\\Copy</title>
<a xlink:href="db_Component_FileSystem_Copy.html" xlink:title="Copy" target="_parent">
<polygon fill="none" stroke="black" points="340,-212 286,-212 286,-176 340,-176 340,-212"/>
<text text-anchor="middle" x="313" y="-191.2" font-family="Courier,monospace" font-size="11.00">Copy</text>
</a>
</g>
<!-- \\Sagres\\Component\\FileSystem\\Locator -->
<g id="node15" class="node"><title>\\Sagres\\Component\\FileSystem\\Locator</title>
<a xlink:href="db_Component_FileSystem_Locator.html" xlink:title="Locator" target="_parent">
<polygon fill="none" stroke="black" points="345,-158 281,-158 281,-122 345,-122 345,-158"/>
<text text-anchor="middle" x="313" y="-137.2" font-family="Courier,monospace" font-size="11.00">Locator</text>
</a>
</g>
<!-- \\Sagres\\Component\\FileSystem\\Info -->
<g id="node16" class="node"><title>\\Sagres\\Component\\FileSystem\\Info</title>
<a xlink:href="db_Component_FileSystem_Info.html" xlink:title="Info" target="_parent">
<polygon fill="none" stroke="black" points="340,-104 286,-104 286,-68 340,-68 340,-104"/>
<text text-anchor="middle" x="313" y="-83.2" font-family="Courier,monospace" font-size="11.00">Info</text>
</a>
</g>
</g>
</svg>
