<?xml version="1.0" encoding="UTF-8" standalone="no"?>
<!DOCTYPE svg PUBLIC "-//W3C//DTD SVG 1.1//EN"
 "http://www.w3.org/Graphics/SVG/1.1/DTD/svg11.dtd">
<!-- Generated by graphviz version 2.28.0 (20111211.2114)
 -->
<!-- Title: G Pages: 1 -->
<svg width="454pt" height="564pt"
 viewBox="0.00 0.00 454.00 564.00" xmlns="http://www.w3.org/2000/svg" xmlns:xlink="http://www.w3.org/1999/xlink">
<g id="graph1" class="graph" transform="scale(1 1) rotate(0) translate(4 560)">
<title>G</title>
<polygon fill="white" stroke="white" points="-4,5 -4,-560 451,-560 451,5 -4,5"/>
<g id="graph2" class="cluster"><title>cluster_Sagres</title>
<polyline fill="none" stroke="gray" points="20,-44 426,-44 "/>
<path fill="none" stroke="gray" d="M426,-44C432,-44 438,-50 438,-56"/>
<polyline fill="none" stroke="gray" points="438,-56 438,-536 "/>
<path fill="none" stroke="gray" d="M438,-536C438,-542 432,-548 426,-548"/>
<polyline fill="none" stroke="gray" points="426,-548 20,-548 "/>
<path fill="none" stroke="gray" d="M20,-548C14,-548 8,-542 8,-536"/>
<polyline fill="none" stroke="gray" points="8,-536 8,-56 "/>
<path fill="none" stroke="gray" d="M8,-56C8,-50 14,-44 20,-44"/>
<text text-anchor="middle" x="223" y="-535.2" font-family="Times,serif" font-size="11.00" fill="gray">Sagres</text>
</g>
<g id="graph3" class="cluster"><title>cluster_Sagres\Component</title>
<polyline fill="none" stroke="gray" points="28,-52 418,-52 "/>
<path fill="none" stroke="gray" d="M418,-52C424,-52 430,-58 430,-64"/>
<polyline fill="none" stroke="gray" points="430,-64 430,-508 "/>
<path fill="none" stroke="gray" d="M430,-508C430,-514 424,-520 418,-520"/>
<polyline fill="none" stroke="gray" points="418,-520 28,-520 "/>
<path fill="none" stroke="gray" d="M28,-520C22,-520 16,-514 16,-508"/>
<polyline fill="none" stroke="gray" points="16,-508 16,-64 "/>
<path fill="none" stroke="gray" d="M16,-64C16,-58 22,-52 28,-52"/>
<text text-anchor="middle" x="223" y="-507.2" font-family="Times,serif" font-size="11.00" fill="gray">Component</text>
</g>
<g id="graph4" class="cluster"><title>cluster_Sagres\Component\FileSystem</title>
<polyline fill="none" stroke="gray" points="36,-60 410,-60 "/>
<path fill="none" stroke="gray" d="M410,-60C416,-60 422,-66 422,-72"/>
<polyline fill="none" stroke="gray" points="422,-72 422,-480 "/>
<path fill="none" stroke="gray" d="M422,-480C422,-486 416,-492 410,-492"/>
<polyline fill="none" stroke="gray" points="410,-492 36,-492 "/>
<path fill="none" stroke="gray" d="M36,-492C30,-492 24,-486 24,-480"/>
<polyline fill="none" stroke="gray" points="24,-480 24,-72 "/>
<path fill="none" stroke="gray" d="M24,-72C24,-66 30,-60 36,-60"/>
<text text-anchor="middle" x="223" y="-479.2" font-family="Times,serif" font-size="11.00" fill="gray">FileSystem</text>
</g>
<g id="graph5" class="cluster"><title>cluster_Sagres\Component\FileSystem\Exception</title>
<polyline fill="none" stroke="gray" points="224,-114 402,-114 "/>
<path fill="none" stroke="gray" d="M402,-114C408,-114 414,-120 414,-126"/>
<polyline fill="none" stroke="gray" points="414,-126 414,-174 "/>
<path fill="none" stroke="gray" d="M414,-174C414,-180 408,-186 402,-186"/>
<polyline fill="none" stroke="gray" points="402,-186 224,-186 "/>
<path fill="none" stroke="gray" d="M224,-186C218,-186 212,-180 212,-174"/>
<polyline fill="none" stroke="gray" points="212,-174 212,-126 "/>
<path fill="none" stroke="gray" d="M212,-126C212,-120 218,-114 224,-114"/>
<text text-anchor="middle" x="313" y="-173.2" font-family="Times,serif" font-size="11.00" fill="gray">Exception</text>
</g>
<g id="graph6" class="cluster"><title>cluster_Sagres\Component\FileSystem\Locator</title>
<polyline fill="none" stroke="gray" points="44,-194 369,-194 "/>
<path fill="none" stroke="gray" d="M369,-194C375,-194 381,-200 381,-206"/>
<polyline fill="none" stroke="gray" points="381,-206 381,-452 "/>
<path fill="none" stroke="gray" d="M381,-452C381,-458 375,-464 369,-464"/>
<polyline fill="none" stroke="gray" points="369,-464 44,-464 "/>
<path fill="none" stroke="gray" d="M44,-464C38,-464 32,-458 32,-452"/>
<polyline fill="none" stroke="gray" points="32,-452 32,-206 "/>
<path fill="none" stroke="gray" d="M32,-206C32,-200 38,-194 44,-194"/>
<text text-anchor="middle" x="206.5" y="-451.2" font-family="Times,serif" font-size="11.00" fill="gray">Locator</text>
</g>
<g id="graph7" class="cluster"><title>cluster_Sagres\Component\FileSystem\Locator\Node</title>
<polyline fill="none" stroke="gray" points="52,-202 361,-202 "/>
<path fill="none" stroke="gray" d="M361,-202C367,-202 373,-208 373,-214"/>
<polyline fill="none" stroke="gray" points="373,-214 373,-424 "/>
<path fill="none" stroke="gray" d="M373,-424C373,-430 367,-436 361,-436"/>
<polyline fill="none" stroke="gray" points="361,-436 52,-436 "/>
<path fill="none" stroke="gray" d="M52,-436C46,-436 40,-430 40,-424"/>
<polyline fill="none" stroke="gray" points="40,-424 40,-214 "/>
<path fill="none" stroke="gray" d="M40,-214C40,-208 46,-202 52,-202"/>
<text text-anchor="middle" x="206.5" y="-423.2" font-family="Times,serif" font-size="11.00" fill="gray">Node</text>
</g>
<!-- \\Sagres\\Component\\FileSystem\\Exception\\ResourceNotFoundException -->
<g id="node5" class="node"><title>\\Sagres\\Component\\FileSystem\\Exception\\ResourceNotFoundException</title>
<a xlink:href="db_Component_FileSystem_Exception_ResourceNotFoundException.html" xlink:title="ResourceNotFoundException" target="_parent">
<polygon fill="none" stroke="black" points="405.5,-158 220.5,-158 220.5,-122 405.5,-122 405.5,-158"/>
<text text-anchor="middle" x="313" y="-137.2" font-family="Courier,monospace" font-size="11.00">ResourceNotFoundException</text>
</a>
</g>
<!-- \\Exception -->
<g id="node32" class="node"><title>\\Exception</title>
<ellipse fill="none" stroke="black" cx="98" cy="-18" rx="48.9926" ry="18"/>
<text text-anchor="middle" x="98" y="-14.3" font-family="Times,serif" font-size="14.00" fill="gray">\Exception</text>
</g>
<!-- \\Sagres\\Component\\FileSystem\\Exception\\ResourceNotFoundException&#45;&gt;\\Exception -->
<g id="edge28" class="edge"><title>\\Sagres\\Component\\FileSystem\\Exception\\ResourceNotFoundException&#45;&gt;\\Exception</title>
<path fill="none" stroke="black" d="M220.558,-121.966C217.634,-120.73 214.773,-119.41 212,-118 175.447,-99.4093 141.344,-66.1621 120.363,-43.1348"/>
<polygon fill="none" stroke="black" points="122.778,-40.5844 113.507,-35.4568 117.557,-45.2469 122.778,-40.5844"/>
</g>
<!-- \\Sagres\\Component\\FileSystem\\Locator\\Node\\FileNode -->
<g id="node8" class="node"><title>\\Sagres\\Component\\FileSystem\\Locator\\Node\\FileNode</title>
<a xlink:href="db_Component_FileSystem_Locator_Node_FileNode.html" xlink:title="FileNode" target="_parent">
<polygon fill="none" stroke="black" points="348.5,-408 277.5,-408 277.5,-372 348.5,-372 348.5,-408"/>
<text text-anchor="middle" x="313" y="-387.2" font-family="Courier,monospace" font-size="11.00">FileNode</text>
</a>
</g>
<!-- \\Sagres\\Component\\FileSystem\\Locator\\Node\\AbstractNode -->
<g id="node10" class="node"><title>\\Sagres\\Component\\FileSystem\\Locator\\Node\\AbstractNode</title>
<a xlink:href="db_Component_FileSystem_Locator_Node_AbstractNode.html" xlink:title="«abstract»&lt;br/&gt;AbstractNode" target="_parent">
<polygon fill="none" stroke="black" points="147.5,-354 48.5,-354 48.5,-318 147.5,-318 147.5,-354"/>
<text text-anchor="start" x="64" y="-339.7" font-family="Courier,monospace" font-size="11.00">«abstract»</text>
<text text-anchor="start" x="57" y="-328.7" font-family="Courier,monospace" font-size="11.00">AbstractNode</text>
</a>
</g>
<!-- \\Sagres\\Component\\FileSystem\\Locator\\Node\\FileNode&#45;&gt;\\Sagres\\Component\\FileSystem\\Locator\\Node\\AbstractNode -->
<g id="edge22" class="edge"><title>\\Sagres\\Component\\FileSystem\\Locator\\Node\\FileNode&#45;&gt;\\Sagres\\Component\\FileSystem\\Locator\\Node\\AbstractNode</title>
<path fill="none" stroke="black" d="M277.304,-381.204C244.948,-373.001 196.042,-360.602 157.628,-350.863"/>
<polygon fill="none" stroke="black" points="158.154,-347.386 147.601,-348.321 156.434,-354.171 158.154,-347.386"/>
</g>
<!-- \\Sagres\\Component\\FileSystem\\Locator\\Node\\FolderNode -->
<g id="node9" class="node"><title>\\Sagres\\Component\\FileSystem\\Locator\\Node\\FolderNode</title>
<a xlink:href="db_Component_FileSystem_Locator_Node_FolderNode.html" xlink:title="FolderNode" target="_parent">
<polygon fill="none" stroke="black" points="355,-354 271,-354 271,-318 355,-318 355,-354"/>
<text text-anchor="middle" x="313" y="-333.2" font-family="Courier,monospace" font-size="11.00">FolderNode</text>
</a>
</g>
<!-- \\Sagres\\Component\\FileSystem\\Locator\\Node\\FolderNode&#45;&gt;\\Sagres\\Component\\FileSystem\\Locator\\Node\\AbstractNode -->
<g id="edge24" class="edge"><title>\\Sagres\\Component\\FileSystem\\Locator\\Node\\FolderNode&#45;&gt;\\Sagres\\Component\\FileSystem\\Locator\\Node\\AbstractNode</title>
<path fill="none" stroke="black" d="M270.931,-336C238.913,-336 194.013,-336 158.126,-336"/>
<polygon fill="none" stroke="black" points="157.783,-332.5 147.783,-336 157.783,-339.5 157.783,-332.5"/>
</g>
<!-- \\Sagres\\Component\\FileSystem\\Locator\\Node\\NodeInterface -->
<g id="node11" class="node"><title>\\Sagres\\Component\\FileSystem\\Locator\\Node\\NodeInterface</title>
<a xlink:href="db_Component_FileSystem_Locator_Node_NodeInterface.html" xlink:title="NodeInterface" target="_parent">
<polygon fill="none" stroke="black" points="365,-300 261,-300 261,-264 365,-264 365,-300"/>
<text text-anchor="middle" x="313" y="-279.2" font-family="Courier,monospace" font-size="11.00">NodeInterface</text>
</a>
</g>
<!-- \\Sagres\\Component\\FileSystem\\Locator\\Node\\LinkNode -->
<g id="node12" class="node"><title>\\Sagres\\Component\\FileSystem\\Locator\\Node\\LinkNode</title>
<a xlink:href="db_Component_FileSystem_Locator_Node_LinkNode.html" xlink:title="LinkNode" target="_parent">
<polygon fill="none" stroke="black" points="348.5,-246 277.5,-246 277.5,-210 348.5,-210 348.5,-246"/>
<text text-anchor="middle" x="313" y="-225.2" font-family="Courier,monospace" font-size="11.00">LinkNode</text>
</a>
</g>
<!-- \\Sagres\\Component\\FileSystem\\Locator\\Node\\LinkNode&#45;&gt;\\Sagres\\Component\\FileSystem\\Locator\\Node\\AbstractNode -->
<g id="edge26" class="edge"><title>\\Sagres\\Component\\FileSystem\\Locator\\Node\\LinkNode&#45;&gt;\\Sagres\\Component\\FileSystem\\Locator\\Node\\AbstractNode</title>
<path fill="none" stroke="black" d="M277.115,-233.159C257.153,-237.129 232.153,-243.879 212,-255 180.774,-272.231 180.171,-289.723 150.024,-312.078"/>
<polygon fill="none" stroke="black" points="147.903,-309.289 141.686,-317.869 151.896,-315.039 147.903,-309.289"/>
</g>
<!-- \\Sagres\\Component\\FileSystem\\Locator -->
<g id="node14" class="node"><title>\\Sagres\\Component\\FileSystem\\Locator</title>
<a xlink:href="db_Component_FileSystem_Locator.html" xlink:title="Locator" target="_parent">
<polygon fill="none" stroke="black" points="345,-104 281,-104 281,-68 345,-68 345,-104"/>
<text text-anchor="middle" x="313" y="-83.2" font-family="Courier,monospace" font-size="11.00">Locator</text>
</a>
</g>
</g>
</svg>
